<?xml version="1.0" encoding="UTF-8" standalone="no"?>
<svg
   width="23.375622"
   height="23.142548"
   viewBox="0 0 6.1847998 6.1231322"
   version="1.1"
   id="svg8"
   inkscape:version="1.1 (c68e22c387, 2021-05-23)"
   sodipodi:docname="icon_sends.svg"
   xmlns:inkscape="http://www.inkscape.org/namespaces/inkscape"
   xmlns:sodipodi="http://sodipodi.sourceforge.net/DTD/sodipodi-0.dtd"
   xmlns="http://www.w3.org/2000/svg"
   xmlns:svg="http://www.w3.org/2000/svg"
   xmlns:rdf="http://www.w3.org/1999/02/22-rdf-syntax-ns#"
   xmlns:cc="http://creativecommons.org/ns#"
   xmlns:dc="http://purl.org/dc/elements/1.1/">
  <defs
     id="defs2">
    <inkscape:path-effect
       effect="fillet_chamfer"
       id="path-effect997"
       is_visible="true"
       lpeversion="1"
       satellites_param="F,0,0,1,0,0.52916667,0,1 @ F,0,0,1,0,0.52916667,0,1 @ F,0,0,1,0,0.52916667,0,1 @ F,0,0,1,0,0.52916667,0,1 @ F,0,0,1,0,0.52916667,0,1 @ F,0,0,1,0,0.52916667,0,1"
       unit="px"
       method="auto"
       mode="F"
       radius="2"
       chamfer_steps="1"
       flexible="false"
       use_knot_distance="true"
       apply_no_radius="true"
       apply_with_radius="true"
       only_selected="false"
       hide_knots="false" />
  </defs>
  <sodipodi:namedview
     id="base"
     pagecolor="#3b3b3b"
     bordercolor="#666666"
     borderopacity="1.0"
     inkscape:pageopacity="0"
     inkscape:pageshadow="2"
     inkscape:zoom="29.4"
     inkscape:cx="8.622449"
     inkscape:cy="9.8469388"
     inkscape:document-units="mm"
     inkscape:current-layer="layer1"
     inkscape:document-rotation="0"
     showgrid="false"
     units="px"
     inkscape:window-width="1284"
     inkscape:window-height="1045"
     inkscape:window-x="667"
     inkscape:window-y="312"
     inkscape:window-maximized="0"
     inkscape:pagecheckerboard="0"
     showborder="false"
     fit-margin-top="0"
     fit-margin-left="0"
     fit-margin-right="0"
     fit-margin-bottom="0" />
  <metadata
     id="metadata5">
    <rdf:RDF>
      <cc:Work
         rdf:about="">
        <dc:format>image/svg+xml</dc:format>
        <dc:type
           rdf:resource="http://purl.org/dc/dcmitype/StillImage" />
      </cc:Work>
    </rdf:RDF>
  </metadata>
  <g
     inkscape:label="Layer 1"
     inkscape:groupmode="layer"
     id="layer1"
     transform="translate(-1.4113452e-8,1.3769613e-5)">
    <g
       id="g988">
      <path
         id="path995"
         style="fill:#b3b3b3;fill-opacity:1;stroke:#333333;stroke-width:0;stroke-linecap:round"
         d="m 5.1411346e-7,0.39646947 v 0.1171262 A 0.76441772,0.82668623 0 0 0 0.49522798,1.2873271 l 0.2430166,0.098884 a 0.19899043,0.21519994 0 0 1 -5.71e-5,0.4028531 l -0.2429024,0.098745 A 0.76416731,0.82641542 0 0 0 5.1411346e-7,2.6613765 V 2.7784931 A 0.36632052,0.39616052 0 0 0 0.49526068,3.1493014 L 3.8397924,1.789134 A 0.19900363,0.21521421 0 0 0 3.839809,1.3862574 L 0.49524418,0.02570877 A 0.36628567,0.39612284 0 0 0 5.1411346e-7,0.39646947 Z" />
      <path
         id="path995-1"
         style="fill:#808080;fill-opacity:1;stroke:#333333;stroke-width:0;stroke-linecap:round"
         d="m 5.1411346e-7,0.39646947 v 0.1171262 A 0.76441772,0.82668623 0 0 0 0.49522798,1.2873271 l 0.2430166,0.098884 a 0.19899043,0.21519994 0 0 1 -5.71e-5,0.4028531 l -0.2429024,0.098745 A 0.76416731,0.82641542 0 0 0 5.1411346e-7,2.6613765 V 2.7784931 A 0.36632052,0.39616052 0 0 0 0.49526068,3.1493014 L 3.8397924,1.789134 A 0.19900363,0.21521421 0 0 0 3.839809,1.3862574 L 0.49524418,0.02570877 A 0.36628567,0.39612284 0 0 0 5.1411346e-7,0.39646947 Z"
         transform="translate(1.0455103,1.3337789)" />
      <path
         id="path995-1-5"
         style="fill:#666666;fill-opacity:1;stroke:#333333;stroke-width:0;stroke-linecap:round"
         d="m 5.1411346e-7,0.39646947 v 0.1171262 A 0.76441772,0.82668623 0 0 0 0.49522798,1.2873271 l 0.2430166,0.098884 a 0.19899043,0.21519994 0 0 1 -5.71e-5,0.4028531 l -0.2429024,0.098745 A 0.76416731,0.82641542 0 0 0 5.1411346e-7,2.6613765 V 2.7784931 A 0.36632052,0.39616052 0 0 0 0.49526068,3.1493014 L 3.8397924,1.789134 A 0.19900363,0.21521421 0 0 0 3.839809,1.3862574 L 0.49524418,0.02570877 A 0.36628567,0.39612284 0 0 0 5.1411346e-7,0.39646947 Z"
         transform="translate(2.2160498,2.9481048)" />
    </g>
  </g>
</svg>
